<?xml version="1.0" standalone="no"?>
<!DOCTYPE svg PUBLIC "-//W3C//DTD SVG 20010904//EN"
 "http://www.w3.org/TR/2001/REC-SVG-20010904/DTD/svg10.dtd">
<svg version="1.0" xmlns="http://www.w3.org/2000/svg"
 width="1280.000000pt" height="1148.000000pt" viewBox="0 0 1280.000000 1148.000000"
 preserveAspectRatio="xMidYMid meet">
<metadata>
Created by potrace 1.15, written by Peter Selinger 2001-2017
</metadata>

<g transform="translate(0.000000,1148.000000) scale(0.100000,-0.100000)"
fill="#000000" stroke="none">
<path d="M1630 11474 c-79 -10 -238 -47 -315 -75 -402 -142 -751 -508 -990
-1039 -113 -251 -159 -392 -199 -610 -153 -837 -167 -2851 -30 -4375 32 -366
93 -827 135 -1025 84 -393 222 -666 445 -879 170 -163 347 -257 589 -314 89
-21 102 -21 1828 -27 l1738 -5 -168 -151 c-92 -82 -681 -604 -1308 -1158 -627
-554 -1152 -1022 -1167 -1039 -72 -81 -28 -195 79 -204 47 -4 57 1 388 187
187 106 835 470 1440 810 605 340 1464 823 1909 1074 l809 456 656 0 c1857 0
3149 105 3595 290 150 62 368 225 497 371 168 188 356 502 424 703 136 405
207 1367 208 2796 0 1378 -69 2618 -172 3122 -117 566 -572 904 -1366 1014
-126 18 -930 29 -3145 44 -899 6 -2215 15 -2925 20 -1916 14 -2916 19 -2955
14z"/>
 

</g>
<text x="100" y="15" fill="red" >I love SVG!</text>
</svg>
